<?xml version="1.0" encoding="utf-8"?>
<!-- Generator: Adobe Illustrator 15.1.0, SVG Export Plug-In . SVG Version: 6.00 Build 0)  -->
<!DOCTYPE svg PUBLIC "-//W3C//DTD SVG 1.1//EN" "http://www.w3.org/Graphics/SVG/1.1/DTD/svg11.dtd">
<svg version="1.1" id="Layer_1" xmlns="http://www.w3.org/2000/svg" xmlns:xlink="http://www.w3.org/1999/xlink" x="0px" y="0px"
	 width="500px" height="320px" viewBox="0 0 500 320" enable-background="new 0 0 500 320" xml:space="preserve">
<g id="Layer_2">
	<g>
		<g>
			<path fill="#FFFFFF" d="M288.248,274.898l-7.64-2.994c-5.7-2.221-9.276-3.287-9.276-6.281c0-2.806,2.516-4.255,6.575-4.255
				c4.637,0,8.312,1.545,12.564,4.544l8.308-10.438c-5.798-5.704-13.723-8.409-20.872-8.409c-13.729,0-23.393,8.793-23.393,19.521
				c0,9.089,5.896,14.794,12.663,17.496l7.827,3.288c5.314,2.128,8.504,3.095,8.504,6.09c0,2.806-2.126,4.448-7.153,4.448
				c-4.639,0-10.243-2.516-14.689-6.093l-9.473,11.405c6.768,6.093,15.849,8.99,23.777,8.99c15.656,0,24.551-9.471,24.551-20.106
				C300.521,283.404,296.075,277.993,288.248,274.898"/>
			<path fill="#FFFFFF" d="M325.333,297.712h-0.966v-36.148h0.966c9.088,0,16.239,3.094,16.239,17.782
				C341.572,294.04,334.421,297.712,325.333,297.712 M326.301,248.224h-18.559v62.823h19.526c18.17,0,31.315-9.47,31.315-31.703
				C358.584,257.117,345.438,248.224,326.301,248.224"/>
			<polygon fill="#FFFFFF" points="394.896,273.742 413.649,248.224 395.479,248.224 379.625,271.615 379.242,271.615 
				379.242,248.224 362.616,248.224 362.616,311.047 379.242,311.047 379.242,295.392 385.232,286.887 399.151,311.047 
				417.321,311.047 			"/>
		</g>
		<g>
			<g>
				<path fill="#FFFFFF" d="M444.603,12.2c0.709,1.118,5.183,3.539,13.078,3.539s12.367-2.421,13.077-3.539
					c-0.71-1.118-5.182-3.539-13.077-3.539S445.31,11.082,444.603,12.2"/>
				<path fill="#FFFFFF" d="M490.694,22.774l-16.235-6.203v6.245c0,3.971-7.512,7.189-16.78,7.189
					c-9.267,0-16.778-3.219-16.778-7.189v-6.245l-16.232,6.203l33.011,12.024L490.694,22.774z"/>
			</g>
			<polygon fill="#FFFFFF" points="421.266,44.16 455.739,57.333 455.739,37.978 421.266,25.426 			"/>
			<polygon fill="#FFFFFF" points="459.393,57.418 494.094,44.16 494.094,25.426 459.393,38.062 			"/>
			<path fill="#FFFFFF" d="M457.681,26.353c8.109,0,12.61-2.554,13.128-3.625V16.67c-3.074,1.658-7.808,2.722-13.128,2.722
				c-5.321,0-10.054-1.064-13.127-2.722v6.058C445.068,23.798,449.569,26.353,457.681,26.353"/>
		</g>
	</g>
	<g>
		<path fill="#FFFFFF" d="M479.672,74.47c-0.262,0-0.51,0-0.758,0.003c-1.677,0.005-3.352,0.042-5.028,0.121
			c-1.493,0.067-2.973,0.168-4.464,0.302c-1.369,0.131-2.758,0.289-4.122,0.489c-1.294,0.188-2.562,0.413-3.824,0.686
			c-0.479,0.103-0.971,0.213-1.447,0.33c-0.465,0.108-0.93,0.233-1.396,0.36c-3.2,0.866-6.365,2.068-9.118,3.927
			c-1.909,1.199-3.632,2.694-5.077,4.427c-1.495,1.741-2.702,3.726-3.629,5.825c-1.179,2.617-1.954,5.419-2.42,8.259
			c-0.275,1.619-0.468,3.249-0.592,4.881c-0.099,1.243-0.156,2.489-0.172,3.734c-0.025,0.56-0.025,1.12-0.03,1.685l-0.002,0.146
			c0,1.167,0.002,2.34,0.002,3.508c0.007,8.156,0.002,16.322,0,24.48c-0.002,7.779,0,15.548,0,23.325v23.316V207.6v9.329v5.833
			v3.499c0.879-0.003,1.757-0.006,2.641-0.027c1.658-0.023,3.321-0.094,4.989-0.195c3.649-0.211,7.29-0.611,10.871-1.406
			c3.173-0.656,6.309-1.623,9.181-3.12c2.228-1.11,4.315-2.525,6.091-4.283c1.773-1.686,3.232-3.696,4.361-5.879
			c1.279-2.389,2.146-4.992,2.721-7.625c0.388-1.719,0.662-3.461,0.851-5.214c0.188-1.689,0.294-3.393,0.337-5.089
			c0.028-0.781,0.032-1.553,0.037-2.333l0.002-81.441l-0.004-0.145V74.47L479.672,74.47z"/>
		<path fill="#FFFFFF" d="M410.585,113.274c-3.064-7.919-7.513-15.256-12.993-21.711c-5.354-6.519-11.718-12.162-18.853-16.677
			c-7.152-4.685-15.085-8.212-23.357-10.277c-3.384-0.91-6.82-1.569-10.288-2.018c-2.217-0.297-4.428-0.505-6.66-0.6
			c-1.354-0.053-2.709-0.073-4.061-0.095c-1.353,0.024-2.704,0.046-4.056,0.095c-9.125,0.382-18.285,2.323-26.743,5.876
			c-7.924,3.067-15.254,7.513-21.706,12.995c-6.52,5.347-12.167,11.721-16.69,18.856c-4.678,7.155-8.213,15.086-10.273,23.35
			c-0.901,3.382-1.571,6.824-2.012,10.292c-0.293,2.214-0.506,4.431-0.6,6.656c-0.06,1.354-0.082,2.705-0.101,4.06v82.185
			c0.881-0.002,1.767-0.005,2.637-0.026c5.316-0.07,10.669-0.399,15.88-1.602c3.175-0.656,6.296-1.623,9.175-3.12
			c2.228-1.112,4.324-2.523,6.093-4.283c1.771-1.688,3.231-3.696,4.356-5.882c1.289-2.384,2.143-4.989,2.728-7.625
			c0.388-1.718,0.655-3.46,0.848-5.213c0.185-1.689,0.291-3.379,0.335-5.086c0.012-0.782,0.031-1.552,0.033-2.334v-47.008
			c0.012-0.658,0.015-1.318,0.053-1.975c0.186-4.455,1.129-8.924,2.856-13.052c1.498-3.867,3.676-7.448,6.343-10.599
			c2.615-3.175,5.729-5.929,9.201-8.135c3.491-2.292,7.364-4.002,11.392-5.017c1.664-0.446,3.336-0.771,5.022-0.986
			c1.736-0.229,3.484-0.343,5.229-0.336c5.125-0.033,10.303,0.917,15.033,2.908c3.87,1.494,7.444,3.668,10.594,6.348
			c3.188,2.608,5.953,5.724,8.146,9.2c1.817,2.78,3.242,5.801,4.3,8.972c1.172,3.447,1.883,7.068,1.979,10.697
			c0.034,0.658,0.036,1.315,0.062,1.976v47.007c0.003,0.78,0.011,1.551,0.025,2.332c0.097,4.277,0.512,8.587,1.806,12.677
			c0.713,2.494,1.745,4.919,3.18,7.112c1.305,2.046,2.942,3.896,4.847,5.407c1.973,1.619,4.239,2.882,6.591,3.842
			c3.572,1.517,7.375,2.383,11.202,2.909c2,0.294,3.991,0.482,6.001,0.622c1.925,0.14,3.852,0.225,5.79,0.247
			c0.878,0.024,1.743,0.025,2.624,0.026V144.08c-0.014-1.354-0.044-2.706-0.099-4.06
			C416.079,130.891,414.146,121.743,410.585,113.274"/>
		<path fill="#FFFFFF" d="M231.156,109.641c-0.057-5.053-0.323-10.178-1.839-15.004c-0.704-2.503-1.752-4.927-3.179-7.115
			c-1.303-2.053-2.941-3.897-4.84-5.409c-1.974-1.62-4.236-2.876-6.6-3.845c-3.562-1.514-7.368-2.38-11.197-2.902
			c-1.997-0.292-3.991-0.49-5.997-0.627c-1.928-0.138-3.857-0.216-5.785-0.244c-0.878-0.016-1.764-0.02-2.636-0.023v116.613
			c0.006,0.78,0.01,1.552,0.03,2.334c0.098,4.277,0.516,8.586,1.809,12.676c0.708,2.495,1.751,4.921,3.182,7.109
			c1.301,2.051,2.942,3.899,4.843,5.408c1.972,1.62,4.233,2.882,6.593,3.841c3.564,1.519,7.37,2.388,11.199,2.911
			c1.996,0.294,3.997,0.486,6.005,0.622c1.922,0.14,3.849,0.225,5.777,0.245c0.879,0.025,1.76,0.027,2.633,0.029v-3.5v-6.999
			v-17.493c0-7.78,0.005-15.545,0-23.324c0-7.776-0.002-15.544,0-23.318c0.005-7.776,0.021-15.544,0-23.326
			c-0.002-3.109-0.007-6.224,0-9.327C231.17,115.862,231.2,112.767,231.156,109.641"/>
		<path fill="#FFFFFF" d="M126.051,142.777c-0.008,0.66-0.016,1.314-0.046,1.976c-0.054,1.297-0.184,2.586-0.377,3.874
			c-0.449,3.135-1.269,6.212-2.477,9.14c-1.509,3.841-3.659,7.421-6.326,10.565c-2.597,3.18-5.707,5.923-9.18,8.116
			c-3.482,2.282-7.335,3.996-11.364,5.001c-1.646,0.44-3.321,0.766-5.009,0.987c-1.071,0.14-2.156,0.238-3.241,0.288
			c-0.652,0.026-1.317,0.034-1.975,0.049c-0.486-0.003-0.977-0.015-1.466-0.026c-0.965-0.026-1.93-0.107-2.891-0.207
			c-2.342-0.256-4.675-0.708-6.939-1.394c-2.961-0.844-5.813-2.06-8.47-3.6c-2.655-1.493-5.114-3.303-7.34-5.379
			c-2.242-2.044-4.254-4.352-5.933-6.873c-0.686-1.003-1.32-2.053-1.915-3.11c-0.606-1.067-1.168-2.156-1.636-3.289
			c-0.464-1.085-0.833-2.209-1.162-3.349c-0.28-0.953-0.532-1.913-0.745-2.887c-0.217-0.979-0.394-1.97-0.533-2.963
			c-0.143-1.005-0.246-2.02-0.309-3.037c-0.022-0.413-0.041-0.817-0.053-1.229c-0.014-0.26-0.017-0.518-0.021-0.777
			c0.001-0.159-0.001-0.316-0.001-0.468c0.009-0.66,0.026-1.321,0.049-1.982c0.184-4.453,1.129-8.914,2.861-13.051
			c1.5-3.862,3.671-7.441,6.346-10.592c2.608-3.183,5.718-5.941,9.2-8.137c3.487-2.287,7.357-4.008,11.391-5.019
			c1.655-0.441,3.336-0.768,5.022-0.987c1.738-0.224,3.483-0.337,5.234-0.337c4.101-0.019,8.244,0.586,12.145,1.879
			c3.176,0.972,6.202,2.391,8.999,4.163c2.784,1.718,5.349,3.792,7.628,6.162c2.302,2.34,4.319,4.972,5.91,7.826
			c0.658,1.142,1.253,2.324,1.814,3.523c0.576,1.206,1.121,2.434,1.468,3.719c0.241,0.843,0.4,1.717,0.548,2.589
			c0.13,0.748,0.257,1.486,0.359,2.228c0.105,0.766,0.187,1.533,0.25,2.301c0.068,0.788,0.127,1.577,0.152,2.363
			c0.006,0.326,0.021,0.651,0.022,0.971c0.006,0.201,0.007,0.403,0.008,0.61V142.777z M227.846,18.468
			c-1.508-1.838-3.311-3.436-5.323-4.712c-2.022-1.322-4.268-2.325-6.603-2.904c-0.955-0.257-1.925-0.446-2.912-0.568
			c-0.62-0.085-1.245-0.142-1.874-0.167c-0.381-0.019-0.766-0.026-1.142-0.031c-0.932,0.021-1.861,0.044-2.785,0.096
			c-6.264,0.353-12.431,2.124-18.237,4.601c-6.892,2.791-13.273,6.558-19.276,10.855c-6.335,4.436-12.248,9.468-17.744,14.929
			c-5.322,5.208-10.251,10.828-14.567,16.877c-1.609,2.217-3.141,4.49-4.574,6.822c-1.178,1.897-2.288,3.84-3.288,5.838
			c-0.415,0.805-0.797,1.624-1.187,2.437c-0.376-0.219-0.744-0.447-1.121-0.66c-0.744-0.436-1.499-0.859-2.264-1.273
			c-1.915-1.031-3.868-1.991-5.856-2.863c-2.663-1.188-5.409-2.228-8.195-3.096c-2.814-0.907-5.676-1.646-8.583-2.226
			c-2.942-0.603-5.924-1.036-8.917-1.288c-1.214-0.106-2.431-0.189-3.655-0.244c-0.764-0.03-1.529-0.057-2.298-0.069
			c-0.462-0.008-0.925-0.008-1.39-0.012c-1.351,0.017-2.704,0.038-4.051,0.104c-2.653,0.109-5.307,0.375-7.945,0.77
			c-6.405,0.92-12.717,2.607-18.726,5.077c-7.865,3.085-15.215,7.501-21.659,12.962c-6.51,5.32-12.133,11.689-16.626,18.806
			c-4.675,7.137-8.189,15.048-10.251,23.289c-0.912,3.378-1.577,6.807-2.017,10.272c-0.47,3.54-0.705,7.116-0.688,10.686
			c-0.009,2.16,0.079,4.319,0.253,6.472c0.139,1.772,0.333,3.529,0.591,5.291c0.249,1.734,0.553,3.462,0.924,5.178
			c0.352,1.702,0.765,3.391,1.236,5.063c0.188,0.664,0.378,1.329,0.585,1.987c0.201,0.656,0.413,1.314,0.63,1.964
			c0.762,2.333,1.564,4.652,2.502,6.912c0.767,1.879,1.624,3.718,2.541,5.527c0.915,1.797,1.887,3.559,2.932,5.291
			c1.029,1.725,2.131,3.406,3.296,5.044c0.463,0.654,0.935,1.301,1.417,1.949c0.301,0.396,0.605,0.8,0.915,1.188
			c0.187,0.251,0.37,0.483,0.556,0.717c-0.336,0.286-0.672,0.578-0.999,0.872c-0.663,0.594-1.304,1.203-1.933,1.834
			c-1.574,1.561-3.052,3.229-4.413,4.985c-1.837,2.333-3.465,4.827-4.851,7.465c-1.435,2.636-2.617,5.402-3.548,8.266
			c-0.978,2.895-1.685,5.895-2.098,8.917c-0.184,1.24-0.317,2.479-0.399,3.728c-0.092,1.264-0.141,2.528-0.137,3.792
			c-0.004,1.273,0.045,2.532,0.14,3.792c0.068,1.05,0.175,2.085,0.309,3.115c0.136,1.015,0.303,2.037,0.503,3.042
			c0.19,1.006,0.409,2.002,0.665,2.982c0.104,0.406,0.204,0.793,0.316,1.174c0.104,0.395,0.222,0.778,0.335,1.17
			c1.28,4.246,2.835,8.443,5.044,12.306c1.731,3.209,3.909,6.174,6.358,8.9c2.409,2.726,5.094,5.209,8.024,7.378
			c2.923,2.216,6.092,4.105,9.43,5.602c1.345,0.622,2.714,1.181,4.107,1.688c0.873,0.317,1.756,0.606,2.655,0.876
			c0.535,0.161,1.074,0.301,1.615,0.463l0.205,0.056l0.575,0.142l0.242,0.057l0.209,0.05l0.2,0.052l0.618,0.141l0.207,0.044
			l0.196,0.048l0.211,0.041l0.42,0.088l0.206,0.041l0.205,0.042l0.208,0.044l0.211,0.04l0.21,0.027l0.203,0.039l0.212,0.042
			l0.207,0.035l0.687,0.103l0.16,0.029l0.208,0.025l0.633,0.088l0.213,0.031l0.43,0.053l0.209,0.034l0.638,0.071l0.216,0.025
			l0.213,0.016l1.072,0.092l0.095,0.005l0.127,0.01l1.081,0.072l0.132,0.008l0.083,0.009c0.098,0.002,0.199,0.019,0.294,0.02
			c0.076,0.002,0.163,0.002,0.24,0.008c0.081,0.001,0.161,0.006,0.242,0.007c0.083,0.003,0.159,0.007,0.246,0.007
			c0.062,0.003,0.128,0.003,0.193,0.005l0.093,0.002c0.114,0.003,0.229,0.003,0.344,0.003c0.085,0.002,0.168,0.002,0.257,0.017
			c0.075,0,0.167,0,0.257,0.003h0.256h0.201h71.312c0.546,0.006,1.092,0.009,1.636,0.02c3.405,0.082,6.831,0.46,10.116,1.427
			c2.388,0.629,4.709,1.566,6.816,2.868c1.71,1.029,3.283,2.291,4.605,3.775c1.321,1.434,2.402,3.072,3.222,4.837
			c0.895,1.836,1.49,3.821,1.826,5.837c0.098,0.531,0.17,1.07,0.234,1.597c0.048,0.417,0.087,0.837,0.118,1.248
			c0.027,0.421,0.049,0.851,0.073,1.269c0.981-0.734,1.965-1.464,2.918-2.241c1.793-1.444,3.48-3.018,5.049-4.707
			c2.604-2.752,4.882-5.827,6.637-9.188c2.04-3.751,3.412-7.89,3.908-12.141c0.552-3.92,0.356-7.928-0.576-11.768
			c-0.832-3.729-2.354-7.291-4.469-10.461c-2.045-3.195-4.675-5.997-7.744-8.234c-3.106-2.344-6.678-4.101-10.426-5.059
			c-1.108-0.317-2.238-0.554-3.381-0.742c-0.871-0.134-1.755-0.247-2.639-0.317c-0.898-0.061-1.807-0.086-2.712-0.103H57.163
			c-0.176-0.002-0.345-0.004-0.52-0.011c-1.169-0.05-2.336-0.303-3.417-0.763c-1.019-0.383-1.955-0.951-2.785-1.655
			c-0.83-0.684-1.554-1.494-2.134-2.415c-0.602-0.918-1.051-1.925-1.319-2.99c-0.107-0.429-0.197-0.874-0.256-1.312
			c-0.036-0.285-0.058-0.567-0.075-0.846c-0.006-0.18-0.008-0.363-0.011-0.533c0.002-0.168,0.005-0.337,0.009-0.514
			c0.02-0.328,0.049-0.668,0.098-0.999c0.114-0.807,0.325-1.603,0.634-2.373c0.383-0.989,0.934-1.923,1.615-2.751
			c0.66-0.816,1.45-1.544,2.342-2.118c0.889-0.609,1.876-1.068,2.91-1.357c0.417-0.123,0.849-0.216,1.285-0.277
			c0.268-0.045,0.545-0.085,0.826-0.099c0.166-0.021,0.343-0.025,0.511-0.03l0.288-0.002h29.081h0.119h0.099h0.107
			c0.054,0.002,0.118,0.002,0.181,0.002c1.353-0.015,2.708-0.043,4.061-0.093c2.667-0.11,5.327-0.382,7.959-0.781
			c6.43-0.915,12.759-2.616,18.783-5.095c7.883-3.085,15.243-7.513,21.71-12.991c6.528-5.345,12.167-11.728,16.672-18.856
			c4.688-7.163,8.214-15.09,10.284-23.355c0.908-3.383,1.569-6.82,2.015-10.292c0.47-3.551,0.714-7.136,0.694-10.712
			c0.002-2.451-0.118-4.899-0.366-7.333c-0.192-2.022-0.475-4.03-0.839-6.032c-0.355-1.986-0.784-3.959-1.295-5.914
			c-0.502-1.953-1.072-3.887-1.72-5.798c-0.255-0.752-0.519-1.516-0.799-2.266c-0.279-0.752-0.572-1.494-0.866-2.248
			c-1.069-2.723-2.16-5.439-3.457-8.062c-1.044-2.177-2.229-4.297-3.492-6.356c-1.259-2.063-2.602-4.071-4.032-6.005
			c-1.423-1.938-2.938-3.812-4.534-5.611c-0.629-0.719-1.28-1.428-1.945-2.124c-0.409-0.44-0.829-0.873-1.25-1.298
			c-0.253-0.257-0.511-0.514-0.769-0.762c0.382-0.451,0.759-0.896,1.146-1.344c0.795-0.921,1.606-1.823,2.433-2.719
			c2.188-2.375,4.469-4.662,6.833-6.862c3.289-3.083,6.743-5.99,10.365-8.664c3.559-2.663,7.286-5.098,11.213-7.196
			c3.621-1.973,7.419-3.658,11.4-4.719c1.462-0.411,2.958-0.738,4.466-0.965c0.904-0.141,1.818-0.246,2.732-0.295
			c0.538-0.025,1.078-0.039,1.612-0.052c0.033,0.025,0.061,0.043,0.087,0.068c0.053,0.041,0.113,0.079,0.165,0.118
			c0.139,0.111,0.276,0.209,0.42,0.309c0.183,0.132,0.37,0.268,0.561,0.393c0.186,0.129,0.388,0.254,0.578,0.376
			c0.192,0.122,0.393,0.24,0.585,0.358c0.078,0.049,0.161,0.093,0.236,0.141c0.084,0.045,0.163,0.091,0.238,0.138
			c0.049,0.028,0.106,0.059,0.153,0.084c0.043,0.021,0.08,0.044,0.123,0.066c0.043,0.025,0.085,0.046,0.13,0.073
			c0.074,0.037,0.148,0.075,0.227,0.12c0.207,0.113,0.418,0.214,0.626,0.322c0.179,0.088,0.352,0.169,0.531,0.26
			c0.175,0.083,0.354,0.163,0.535,0.24c0.183,0.086,0.369,0.156,0.545,0.233c0.083,0.024,0.151,0.061,0.227,0.087
			c0.073,0.025,0.146,0.055,0.228,0.082c0.124,0.049,0.258,0.099,0.396,0.141c0.106,0.038,0.218,0.071,0.335,0.102
			c0.11,0.037,0.227,0.071,0.33,0.1c0.117,0.038,0.227,0.063,0.343,0.099c0.048,0.012,0.092,0.023,0.133,0.037
			c0.048,0.015,0.094,0.024,0.133,0.043c0.172,0.049,0.339,0.098,0.508,0.145c0.136,0.041,0.273,0.086,0.416,0.125
			c0.137,0.039,0.278,0.076,0.416,0.11c0.139,0.042,0.281,0.073,0.423,0.111c0.053,0.009,0.115,0.025,0.167,0.034
			c0.062,0.013,0.118,0.025,0.177,0.035c0.329,0.065,0.663,0.122,1.001,0.171c0.272,0.046,0.562,0.079,0.844,0.114
			c0.283,0.037,0.562,0.062,0.847,0.083c0.286,0.024,0.578,0.038,0.862,0.049c0.117,0.002,0.232,0.005,0.346,0.008h0.216h0.135
			c0.378,0,0.764,0,1.147-0.016c0.746-0.024,1.498-0.089,2.246-0.2c1.815-0.248,3.611-0.718,5.308-1.412
			c2.235-0.873,4.316-2.119,6.142-3.677c1.844-1.511,3.434-3.324,4.711-5.351c1.324-2.029,2.317-4.278,2.906-6.622
			c0.253-0.959,0.446-1.939,0.569-2.917c0.13-1.002,0.195-2.016,0.192-3.028c0.019-2.964-0.527-5.969-1.687-8.705
			C230.663,22.363,229.399,20.293,227.846,18.468"/>
	</g>
</g>
</svg>
